<?xml version="1.0" encoding="UTF-8" standalone="no"?>
<!-- Created with Inkscape (http://www.inkscape.org/) -->

<svg
   xmlns:dc="http://purl.org/dc/elements/1.1/"
   xmlns:cc="http://creativecommons.org/ns#"
   xmlns:rdf="http://www.w3.org/1999/02/22-rdf-syntax-ns#"
   xmlns:svg="http://www.w3.org/2000/svg"
   xmlns="http://www.w3.org/2000/svg"
   xmlns:sodipodi="http://sodipodi.sourceforge.net/DTD/sodipodi-0.dtd"
   xmlns:inkscape="http://www.inkscape.org/namespaces/inkscape"
   width="1510.5409"
   height="106.87115"
   viewBox="0 0 1510.5409 106.87115"
   id="svg4221"
   version="1.1"
   inkscape:version="0.48.0 r9654"
   sodipodi:docname="divider up.svg">
  <defs
     id="defs4223" />
  <sodipodi:namedview
     id="base"
     pagecolor="#ffffff"
     bordercolor="#666666"
     borderopacity="1.0"
     inkscape:pageopacity="0.0"
     inkscape:pageshadow="2"
     inkscape:zoom="0.42580769"
     inkscape:cx="824.11476"
     inkscape:cy="49.999577"
     inkscape:document-units="px"
     inkscape:current-layer="layer1"
     showgrid="false"
     units="px"
     fit-margin-top="8"
     fit-margin-left="8"
     fit-margin-right="8"
     fit-margin-bottom="8"
     inkscape:window-width="1366"
     inkscape:window-height="706"
     inkscape:window-x="-8"
     inkscape:window-y="-8"
     inkscape:window-maximized="1" />
  <metadata
     id="metadata4226">
    <rdf:RDF>
      <cc:Work
         rdf:about="">
        <dc:format>image/svg+xml</dc:format>
        <dc:type
           rdf:resource="http://purl.org/dc/dcmitype/StillImage" />
        <dc:title></dc:title>
      </cc:Work>
    </rdf:RDF>
  </metadata>
  <g
     inkscape:label="Layer 1"
     inkscape:groupmode="layer"
     id="layer1"
     transform="translate(1106.9748,357.55144)">
    <g
       id="g3006"
       transform="translate(1.9999999e-5,326.43845)">
      <path
         sodipodi:nodetypes="ccccccccccccccccccccccccccccccccccccccccccccc"
         d="m -853.90521,-626.40239 c 58.825,-14.2 115.79625,-20.2625 180.17375,-17.6375 -36.01751,2.3 -71.81125,9.9625 -93.9225,21.375 38.9325,-13.3375 106.07375,-23.4125 172.36,-10.8875 17.86625,3.375 55.45,11.05 84.14875,12.3875 54.62374,7.375 104.3025,4.1625 113.73624,-11.875 -11.54624,0.5625 -28.03125,-10.25 -18.38125,-22.2875 4.03,-5.025 15.09125,-3.375 16.48625,5.325 4.09499,-18.0125 -20.36126,-20.5625 -25.84875,-6.525 -4.70125,12.0125 2.70375,21.8125 12.97875,26.0125 -21.31125,-3.2625 -36.11875,-17.05 -33.88875,-45.475 -13.45,25.9 3.38625,49.925 31.055,48.675 -40.03125,8.325 -113.86625,-4.1375 -157.80625,-24.6875 14.655,10.7875 39.7125,19.8625 65.44875,25.65 -46.78125,-5.4875 -87.30624,-15.85 -128.1475,-32.8375 16.06875,9.5125 36.15375,17.5375 57.80625,23.9375 -5.4775,-1.2625 -10.885,-2.55 -16.3375,-3.8125 -73.7325,-17.225 -185.0775,-16.9375 -259.86124,12.6625 z m 1004.39997,0 c -58.8237,-14.2 -115.7987,-20.2625 -180.1762,-17.6375 36.0175,2.3 71.8125,9.9625 93.9237,21.375 -38.9337,-13.3375 -106.07622,-23.4125 -172.36123,-10.8875 -17.86625,3.375 -55.44875,11.05 -84.14749,12.3875 -54.62375,7.375 -104.30376,4.1625 -113.735,-11.875 11.54375,0.5625 28.02999,-10.25 18.38,-22.2875 -4.03125,-5.025 -15.09001,-3.375 -16.48625,5.325 -4.09625,-18.0125 20.35499,-20.5625 25.8475,-6.525 4.7,12.0125 -2.70251,21.8125 -12.97875,26.0125 21.31125,-3.2625 36.11999,-17.05 33.88749,-45.475 13.45125,25.9 -3.38374,49.925 -31.05249,48.675 40.02875,8.325 113.86625,-4.1375 157.805,-24.6875 -14.65625,10.7875 -39.71,19.8625 -65.44875,25.65 46.78375,-5.4875 87.30625,-15.85 128.148735,-32.8375 -16.06874,9.5125 -36.154985,17.5375 -57.807485,23.9375 5.47625,-1.2625 10.88375,-2.55 16.34,-3.8125 73.73125,-17.225 185.07622,-16.9375 259.86122,12.6625 z m -878.40498,-28.675 c -89.81999,5.6625 -281.25028,5.6625 -371.06458,0 89.833,-5.6625 281.23084,-5.6625 371.06458,0 z m 1123.47628,0 c -89.8375,-5.6625 -281.2338,-5.6625 -371.0688,0 89.8175,5.6625 281.2438,5.6625 371.0688,0"
         style="fill:rgba(111, 33, 191, .5);fill-opacity:0.93333333;fill-rule:nonzero;stroke:none"
         id="path3000"
         inkscape:connector-curvature="0" />
      <path
         inkscape:connector-curvature="0"
         id="path3002"
         d="m -353.57963,-673.25354 c -7.30181,-5e-5 -13.42095,1.45491 -19.69631,4.69428 -1.17767,0.60793 -2.3422,1.24981 -2.59335,1.41978 -0.25114,0.16999 -1.13838,0.75853 -1.96962,1.31308 -5.36785,3.58105 -10.52866,8.94702 -14.09107,14.64914 -0.58575,0.93761 -1.36592,2.15405 -1.73164,2.70824 -0.36571,0.55417 -0.98316,1.66376 -1.37874,2.46204 -0.67725,1.36674 -0.72352,1.53681 -0.7222,2.91341 0,1.12411 0.11104,1.77442 0.45957,2.82313 0.82952,2.49577 0.8983,3.05204 0.87815,6.56545 -0.0139,2.41249 -0.11509,4.04873 -0.38573,5.96633 -0.64,4.53476 -0.70429,4.76411 -2.51948,9.79891 -0.23546,0.6531 -0.50809,1.87675 -0.6073,2.72466 l -0.18055,1.54288 0.81246,2.38818 c 2.62047,7.70569 5.60817,12.64752 8.42839,13.95155 0.7284,0.33679 1.08968,0.36292 4.79276,0.38572 4.9568,0.0305 6.25264,0.3035 7.739,1.60854 0.79647,0.69931 0.90344,1.31606 1.05047,6.17151 l 0.12312,4.04594 3.11858,0 c 3.46087,0 3.16394,0.1069 3.38939,-1.23102 0.20598,-1.22212 0.81378,-0.93831 1.02587,0.476 l 0.11489,0.75502 3.05293,0 3.06112,0 0,-0.49241 c 0,-2.04863 1.07065,-2.37181 1.30489,-0.39392 l 0.10668,0.88633 3.11039,0 3.11037,0 1.13253,0 0.0657,-0.52524 c 0.0603,-0.43822 0.25862,-1.04101 0.44316,-1.3377 l 0.33649,-0.53344 0.34469,0.54985 c 0.19472,0.31329 0.33646,0.87971 0.33646,1.3295 l 0,0.51703 1.48545,0 3.11037,0 3.11038,0 0.10667,-0.88633 c 0.23426,-1.97789 1.3049,-1.65471 1.3049,0.39392 l 0,0.49241 3.06111,0 3.05293,0 0.1149,-0.75502 c 0.21209,-1.41431 0.8199,-1.69812 1.02586,-0.476 0.22546,1.33792 -0.0715,1.23102 3.3894,1.23102 l 3.11858,0 0.12311,-4.04594 c 0.14704,-4.85545 0.25401,-5.4722 1.05047,-6.17151 1.48634,-1.30504 2.78223,-1.57809 7.739,-1.60854 3.70309,-0.0228 4.06438,-0.0489 4.79277,-0.38572 2.82022,-1.30403 5.80787,-6.24586 8.42839,-13.95155 l 0.81246,-2.38818 -0.18055,-1.54288 c -0.0992,-0.84791 -0.37184,-2.07156 -0.6073,-2.72466 -1.81519,-5.0348 -1.8795,-5.26415 -2.51948,-9.79891 -0.27067,-1.9176 -0.37181,-3.55384 -0.38573,-5.96633 -0.0203,-3.51341 0.0487,-4.06968 0.87814,-6.56545 0.34847,-1.04871 0.45958,-1.69902 0.45958,-2.82313 0.003,-1.3766 -0.045,-1.54667 -0.72219,-2.91341 -0.39561,-0.79828 -1.01302,-1.90787 -1.37874,-2.46204 -0.36576,-0.55419 -1.14588,-1.77063 -1.73165,-2.70824 -3.5624,-5.70212 -8.72322,-11.06809 -14.09106,-14.64914 -0.83123,-0.55455 -1.71848,-1.14309 -1.96963,-1.31308 -0.25113,-0.16997 -1.41567,-0.81185 -2.59335,-1.41978 -6.27537,-3.23937 -12.39452,-4.69433 -19.6963,-4.69428 -0.63331,0 -1.25996,0.005 -1.87937,0.0246 -0.61673,-0.0198 -1.24064,-0.0246 -1.87115,-0.0246 z m -25.64623,37.01264 c 0.18275,-0.0119 0.37252,0.003 0.6155,0.0246 1.61257,0.14623 2.87806,0.90026 7.59949,4.52195 6.28089,4.81787 10.78378,9.51489 12.98316,13.5494 0.25036,0.4592 0.58288,1.07418 0.74683,1.37055 0.1639,0.29639 0.30347,0.79007 0.30363,1.0915 0,0.93079 -0.31989,0.98755 -3.92285,0.71399 -1.73678,-0.13185 -4.83913,-0.23685 -6.9019,-0.22979 -3.18864,0.0111 -4.00381,0.0707 -5.4329,0.38572 -3.70246,0.81621 -6.0883,0.20323 -7.50923,-1.9368 -0.33709,-0.50769 -0.61549,-0.954 -0.61549,-0.99302 0,-0.039 -0.29225,-0.71901 -0.65655,-1.50185 -0.82296,-1.7685 -2.77704,-6.50696 -3.86541,-9.38857 -0.78733,-2.08461 -0.80813,-2.19112 -0.59908,-2.8888 0.31587,-1.0543 1.02399,-1.62259 4.11981,-3.29091 2.05653,-1.10829 2.58673,-1.39228 3.13499,-1.42799 z m 54.75574,0 c 0.10066,-0.005 0.19588,-0.006 0.28724,0 0.54826,0.0357 1.07846,0.31971 3.13499,1.42799 3.09581,1.66832 3.80394,2.23661 4.11982,3.29092 0.20904,0.69768 0.18823,0.80419 -0.59909,2.88879 -1.08834,2.88161 -3.04242,7.62007 -3.86542,9.38858 -0.36429,0.78284 -0.65654,1.46284 -0.65654,1.50184 0,0.039 -0.2784,0.48534 -0.6155,0.99302 -1.42089,2.14003 -3.80676,2.75301 -7.50923,1.93681 -1.42908,-0.31503 -2.24427,-0.37466 -5.4329,-0.38573 -2.06275,-0.008 -5.16513,0.0979 -6.9019,0.2298 -3.60298,0.27356 -3.92336,0.21679 -3.92284,-0.714 1.5e-4,-0.30142 0.13971,-0.79511 0.30363,-1.0915 0.16396,-0.29637 0.49649,-0.91134 0.74683,-1.37054 2.19937,-4.03451 6.70223,-8.73153 12.98316,-13.54941 4.72143,-3.62168 5.98691,-4.37572 7.59949,-4.52194 0.12148,-0.011 0.2276,-0.0197 0.32826,-0.0246 z m -27.23836,25.90886 c 1.45299,0.14814 2.99701,1.98643 6.25358,7.39432 2.1438,3.56003 2.2598,4.04015 1.17359,4.70249 -0.46303,0.28233 -0.87658,0.32775 -3.22529,0.32827 -1.52452,0 -2.83464,-0.0731 -3.0201,-0.17234 -0.69014,-0.36936 -0.84528,-1.03161 -0.84528,-3.65202 0,-1.69205 -0.015,-2.22633 -0.13954,-2.39639 l 0,-0.041 c -0.0134,-0.0114 -0.0336,-0.0104 -0.0492,-0.0164 -0.01,-0.006 -0.0223,-0.0131 -0.0328,-0.0164 -0.005,-8e-4 -0.0112,5.2e-4 -0.0162,0 -0.0316,-0.008 -0.066,-0.009 -0.10667,-0.009 -0.0382,0 -0.0686,0.003 -0.0985,0.009 -0.0108,0.004 -0.0232,0.0113 -0.0328,0.0164 -0.0157,0.006 -0.0357,0.005 -0.0492,0.0164 l 0,0.041 c -0.12454,0.17006 -0.13952,0.70434 -0.13952,2.39639 0,2.62041 -0.1552,3.28266 -0.84529,3.65202 -0.18545,0.0993 -1.49557,0.17234 -3.0201,0.17234 -2.34873,-5.2e-4 -2.76228,-0.046 -3.22528,-0.32827 -1.08621,-0.66234 -0.97022,-1.14246 1.17359,-4.70249 3.25054,-5.3979 4.79473,-7.24019 6.24534,-7.39432 z"
         style="fill:rgba(111, 33, 191, .7);fill-opacity:1;fill-rule:evenodd;stroke:none" />
    </g>
  </g>
</svg>
