<svg
              width="51.4"
              xmlns="http://www.w3.org/2000/svg"
              height="51.4"
              id="screenshot-9f348613-9ce7-8099-8006-44407cd8d818"
              viewBox="102.75 309.471 51.4 51.4"
              xmlns:xlink="http://www.w3.org/1999/xlink"
              fill="none"
              version="1.1"
              aria-label="Github Logo"
            >
              <g id="shape-9f348613-9ce7-8099-8006-44407cd8d818">
                <g
                  class="fills"
                  id="fills-9f348613-9ce7-8099-8006-44407cd8d818"
                >
                  <path
                    d="M128.453,309.471C114.252,309.465,102.750,321.274,102.750,335.849C102.750,347.375,109.945,357.172,119.966,360.770C121.315,361.118,121.108,360.133,121.108,359.461L121.108,354.890C113.316,355.827,113.000,350.531,112.478,349.646C111.421,347.794,108.923,347.322,109.670,346.437C111.444,345.499,113.253,346.673,115.349,349.852C116.865,352.159,119.822,351.769,121.321,351.386C121.648,350.000,122.349,348.761,123.313,347.800C115.240,346.313,111.875,341.252,111.875,335.236C111.875,332.316,112.811,329.632,114.648,327.467C113.477,323.899,114.757,320.843,114.930,320.389C118.266,320.082,121.734,322.843,122.004,323.061C123.899,322.536,126.064,322.259,128.487,322.259C130.922,322.259,133.093,322.548,135.005,323.079C135.654,322.571,138.870,320.200,141.970,320.489C142.137,320.943,143.389,323.928,142.286,327.449C144.147,329.620,145.094,332.328,145.094,335.253C145.094,341.282,141.706,346.348,133.610,347.811C135.010,349.226,135.799,351.161,135.797,353.179L135.797,359.815C135.843,360.346,135.797,360.871,136.659,360.871C146.828,357.349,154.150,347.481,154.150,335.855C154.150,321.274,142.642,309.471,128.453,309.471ZZ"
                    style="fill: rgb(255, 255, 255); fill-opacity: 1"
                  />
                </g>
              </g>
            </svg>