<svg
              width="51.405"
              xmlns="http://www.w3.org/2000/svg"
              height="51.405"
              id="screenshot-b9293ae4-fb9b-8028-8002-aa25366189fb"
              viewBox="0 0 51.405 51.405"
              xmlns:xlink="http://www.w3.org/1999/xlink"
              fill="none"
              version="1.1"
              aria-label="LinkedIn Logo"
            >
              <g
                id="shape-b9293ae4-fb9b-8028-8002-aa25366189fb"
                rx="0"
                ry="0"
                style="fill: rgb(0, 0, 0)"
              >
                <g
                  id="shape-b9293ae4-fb9b-8028-8002-aa25366189fc"
                  rx="0"
                  ry="0"
                  style="fill: rgb(0, 0, 0)"
                >
                  <g id="shape-b9293ae4-fb9b-8028-8002-aa25366251e0">
                    <g
                      class="fills"
                      id="fills-b9293ae4-fb9b-8028-8002-aa25366251e0"
                    >
                      <path
                        d="M44.217,0.000L7.188,0.000C3.223,0.011,0.011,3.223,0.000,7.188L0.000,44.217C0.011,48.182,3.223,51.394,7.188,51.405L44.217,51.405C48.187,51.405,51.405,48.187,51.405,44.217L51.405,7.188C51.405,3.218,48.187,0.000,44.217,0.000ZZM48.530,44.217C48.513,46.592,46.592,48.513,44.217,48.530L7.188,48.530C4.813,48.513,2.892,46.592,2.875,44.217L2.875,7.188C2.892,4.813,4.813,2.892,7.188,2.875L44.217,2.875C46.592,2.892,48.513,4.813,48.530,7.188Z"
                      />
                    </g>
                  </g>
                  <g
                    id="shape-b9293ae4-fb9b-8028-8002-aa25366251e1"
                    rx="0"
                    ry="0"
                    style="fill: rgb(0, 0, 0)"
                  >
                    <g id="shape-b9293ae4-fb9b-8028-8002-aa253662f2c2">
                      <g
                        class="fills"
                        id="fills-b9293ae4-fb9b-8028-8002-aa253662f2c2"
                      >
                        <path
                          d="M9.534,22.103C9.534,20.515,10.821,19.228,12.409,19.228C13.996,19.228,15.284,20.515,15.284,22.103L15.284,40.790L15.284,40.790C15.284,42.378,13.996,43.665,12.409,43.665C10.821,43.665,9.534,42.378,9.534,40.790Z"
                        />
                      </g>
                    </g>
                    <g id="shape-b9293ae4-fb9b-8028-8002-aa2536632183">
                      <g
                        class="fills"
                        id="fills-b9293ae4-fb9b-8028-8002-aa2536632183"
                      >
                        <ellipse
                          cx="12.408500000000004"
                          cy="10.591499999999996"
                          rx="2.875"
                          ry="2.875"
                          transform="matrix(1.000000, 0.000000, 0.000000, 1.000000, 0.000000, 0.000000)"
                        />
                      </g>
                    </g>
                    <g id="shape-b9293ae4-fb9b-8028-8002-aa2536635ab0">
                      <g
                        class="fills"
                        id="fills-b9293ae4-fb9b-8028-8002-aa2536635ab0"
                      >
                        <path
                          d="M41.860,29.641L41.860,40.796C41.860,42.384,40.573,43.671,38.985,43.671C37.397,43.671,36.110,42.384,36.110,40.796L36.110,29.641C36.110,27.982,35.225,26.450,33.788,25.620C32.352,24.791,30.582,24.791,29.145,25.620C27.709,26.450,26.824,27.982,26.824,29.641L26.824,40.796C26.824,42.384,25.537,43.671,23.949,43.671C22.361,43.671,21.074,42.384,21.074,40.796L21.074,22.109C21.098,20.531,22.371,19.258,23.949,19.234C24.941,19.207,25.868,19.725,26.364,20.585C29.581,18.760,33.526,18.785,36.720,20.651C39.913,22.517,41.871,25.943,41.860,29.641ZZ"
                        />
                      </g>
                    </g>
                  </g>
                </g>
              </g>
            </svg>